Coordinates
version=1
nRows=24
nColumns=24
inDegrees=yes

Units are S.I. units (second, meters, Newtons, ...)
If the header above contains a line with 'inDegrees', this indicates whether rotational values are in degrees (yes) or radians (no).

endheader
time	pelvis_tilt	pelvis_list	pelvis_rotation	pelvis_tx	pelvis_ty	pelvis_tz	hip_flexion_r	hip_adduction_r	hip_rotation_r	knee_angle_r	ankle_angle_r	subtalar_angle_r	mtp_angle_r	hip_flexion_l	hip_adduction_l	hip_rotation_l	knee_angle_l	ankle_angle_l	subtalar_angle_l	mtp_angle_l	lumbar_extension	lumbar_bending	lumbar_rotation
      1.00000000	      4.86109968	     -0.02349664	      0.29652518	      0.59297332	      1.04454135	      0.04550281	     -2.68736629	      1.87114204	     -3.73778738	    -11.65874963	      7.96901249	     -0.00000116	      0.00000000	     18.76738471	     -3.05135978	     -4.13408244	    -57.77468217	      1.41913418	     -0.00000131	      0.00000000	    -16.41453002	      1.07648891	      1.15045435
      1.01700000	      4.92661410	     -0.03186576	      0.04776591	      0.59107577	      1.04448939	      0.04658624	     -4.17362573	      1.97312804	     -3.53682865	    -10.90646262	      8.37454563	     -0.00000114	      0.00000000	     19.43898741	     -3.05286448	     -4.54526057	    -53.50466425	      1.66298601	     -0.00000243	      0.00000000	    -16.56670087	      0.92625060	      1.51260071
      1.03300000	      4.94917895	     -0.24589842	     -0.13501158	      0.58910921	      1.04396791	      0.04777965	     -5.70405716	      2.30438463	     -3.41945845	     -9.97241852	      8.67109353	     -0.00000126	      0.00000000	     19.95418208	     -3.43152758	     -5.28413065	    -48.74635385	      1.61783079	     -0.00000365	      0.00000000	    -16.71670852	      1.03126069	      1.84163688
      1.05000000	      5.09487130	     -0.58255076	     -0.25398097	      0.58716274	      1.04329634	      0.04848483	     -7.33667763	      2.72997168	     -3.33715459	     -9.12052135	      8.96841097	     -0.00000124	      0.00000000	     20.09377889	     -3.94041238	     -6.27234378	    -43.47894306	      1.27001407	     -0.00000500	      0.00000000	    -17.04670277	      1.26291373	      1.97947860
      1.06700000	      4.97160870	     -1.16870233	     -0.54010161	      0.58506336	      1.04160090	      0.04934044	     -8.59801840	      3.37793115	     -3.01271775	     -8.42062697	      9.29393807	     -0.00000115	      0.00000000	     20.36079475	     -4.72256410	     -7.53409830	    -37.97284385	      0.73513800	     -0.00000600	      0.00000000	    -16.90750863	      1.78440756	      2.44015337
      1.08300000	      4.90073673	     -1.58203342	     -0.79938428	      0.58337739	      1.03968617	      0.04963243	     -9.98784057	      3.78456540	     -2.55162845	     -7.66636687	      9.66654333	     -0.00000127	      0.00000000	     20.29635013	     -5.15249595	     -8.87407742	    -32.07607448	     -0.02018354	     -0.00000655	      0.00000000	    -16.97271463	      2.01839905	      2.64919555
      1.10000000	      4.74778822	     -2.13770004	     -1.06179188	      0.58208762	      1.03725509	      0.05012495	    -11.37039440	      4.33535479	     -2.07866492	     -6.83401973	      9.96020703	     -0.00000105	      0.00000000	     20.28476501	     -5.57915839	     -9.87499629	    -26.31199170	     -0.72310742	     -0.00000616	      0.00000000	    -16.83182789	      2.47060672	      3.03438725
      1.11700000	      4.55088962	     -2.61283812	     -1.31009374	      0.58080629	      1.03445887	      0.05034696	    -12.58222851	      4.77426204	     -1.48925892	     -6.30150685	     10.41624418	     -0.00000102	      0.00000000	     20.18661436	     -5.71437540	    -10.26923229	    -20.50328305	     -1.32420944	     -0.00000547	      0.00000000	    -16.72449628	      2.84083741	      3.11876863
      1.13300000	      4.40402516	     -3.16975894	     -1.79686324	      0.57924366	      1.03138954	      0.05032414	    -13.71166782	      5.18701507	     -0.63193651	     -6.04214615	     10.96337098	     -0.00000101	      0.00000000	     20.03456555	     -5.90665273	    -10.10368924	    -15.09431294	     -1.62623379	     -0.00000427	      0.00000000	    -16.69774306	      3.17440134	      3.60950885
      1.15000000	      4.47062896	     -3.67221216	     -2.03025273	      0.57844164	      1.02848423	      0.04983723	    -15.13535627	      5.55723469	     -0.01166542	     -5.71931854	     11.44515589	     -0.00000094	      0.00000000	     19.49631145	     -5.93641673	     -9.07885990	     -9.91226227	     -1.73042379	     -0.00000328	      0.00000000	    -16.81660932	      3.60559834	      3.94958808
      1.16700000	      4.42759623	     -4.01290964	     -2.37612899	      0.57805991	      1.02518792	      0.04966417	    -16.50385661	      5.72646427	      0.54759421	     -5.33694656	     11.89696516	     -0.00000087	      0.00000000	     19.13713377	     -5.95332512	     -7.86216379	     -5.68846680	     -1.52033716	     -0.00000222	      0.00000000	    -16.91726129	      3.63678902	      3.90046793
      1.18300000	      4.54476277	     -4.35638068	     -2.92017394	      0.57751124	      1.02230104	      0.04926071	    -17.78647105	      5.76299404	      1.24477576	     -5.46045518	     12.42720114	     -0.00000072	      0.00000000	     18.68588215	     -6.10398272	     -6.84613878	     -2.58647824	     -1.11944829	     -0.00000147	      0.00000000	    -17.03616276	      3.75426030	      4.53708042
      1.20000000	      4.43745203	     -4.46867909	     -3.19791797	      0.57780788	      1.01926784	      0.04877119	    -18.90284211	      5.65082448	      1.60362593	     -5.47422546	     12.80811812	     -0.00000053	      0.00000000	     18.60787346	     -6.02047069	     -5.86697222	     -0.71912801	     -0.75742158	     -0.00000096	      0.00000000	    -16.92766934	      3.53565042	      4.26092059
      1.21700000	      4.55070952	     -4.58181813	     -3.43241836	      0.57736394	      1.01701273	      0.04797272	    -19.82281165	      5.51354793	      1.95518289	     -6.24722960	     13.29794655	     -0.00000021	      0.00000000	     18.70593820	     -5.97144889	     -5.03620413	     -0.61573136	     -0.41733518	     -0.00000076	      0.00000000	    -17.14159320	      3.30064445	      4.35640110
      1.23300000	      4.65667852	     -4.48595393	     -3.77218118	      0.57770565	      1.01519294	      0.04693899	    -20.64272944	      5.09711209	      2.41225288	     -7.20928839	     13.70525319	      0.00000000	      0.00000000	     18.82608447	     -5.73627391	     -4.56153804	     -1.60535293	     -0.40775696	     -0.00000093	      0.00000000	    -17.20898790	      2.81767154	      4.30745329
      1.25000000	      4.58154571	     -4.30675728	     -4.37071254	      0.57916949	      1.01374300	      0.04531215	    -21.08155243	      4.46494985	      3.04579282	     -8.64082840	     14.03016583	      0.00000051	      0.00000000	     19.09897685	     -5.46821283	     -4.46433476	     -3.46034699	     -0.79443287	     -0.00000120	      0.00000000	    -16.94864458	      2.31280822	      4.51777939
      1.26700000	      4.43458408	     -4.03927239	     -4.41885155	      0.58129988	      1.01239244	      0.04343612	    -21.25923896	      3.98152506	      3.16098705	    -10.45487053	     14.25593776	      0.00000090	      0.00000000	     19.66013960	     -4.99141079	     -3.98772780	     -6.04066262	     -1.55974069	     -0.00000148	      0.00000000	    -16.48150364	      1.75810865	      4.33142139
      1.28300000	      4.21678089	     -4.15513478	     -4.62945626	      0.58223847	      1.01141592	      0.04208568	    -20.89611835	      3.88677823	      3.46956568	    -13.07787829	     14.27758079	      0.00000128	      0.00000000	     20.22488356	     -5.01957857	     -3.73609839	     -8.61113516	     -2.66765938	     -0.00000170	      0.00000000	    -16.25021387	      1.44169314	      4.26730394
      1.30000000	      4.11548021	     -3.98824352	     -4.86155183	      0.58472520	      1.01121082	      0.04049322	    -20.69514516	      3.45228215	      3.63163432	    -15.63534498	     13.79733482	      0.00000192	      0.00000000	     20.55532812	     -4.78326170	     -3.74062600	    -11.24704599	     -3.52831698	     -0.00000190	      0.00000000	    -15.89714199	      0.76397316	      4.16143394
      1.31700000	      4.22217690	     -3.71107863	     -5.03168858	      0.58773787	      1.01181961	      0.03864675	    -20.17564634	      2.92079895	      3.63042877	    -19.16862789	     12.98032229	      0.00000259	      0.00000000	     20.51234300	     -4.41846791	     -3.87061971	    -13.71257381	     -4.02938113	     -0.00000207	      0.00000000	    -15.68886290	      0.02279716	      3.85530558
      1.33300000	      4.42914103	     -3.41692967	     -5.09599713	      0.59091559	      1.01299296	      0.03659227	    -19.23860010	      2.38881559	      3.32148862	    -23.53814984	     11.59916857	      0.00000330	      0.00000000	     20.17443910	     -4.00307593	     -3.98452063	    -15.89890737	     -4.13129362	     -0.00000215	      0.00000000	    -15.53793819	     -0.71503057	      3.63826924
      1.35000000	      4.87522338	     -3.04355456	     -5.00933414	      0.59424497	      1.01492071	      0.03399299	    -18.01059838	      1.70755345	      2.46056880	    -28.63770452	      9.32378577	      0.00000398	      0.00000000	     19.34455682	     -3.42155013	     -4.01877497	    -17.70114040	     -3.86120084	     -0.00000228	      0.00000000	    -15.60757671	     -1.44786998	      3.28436525
      1.36700000	      5.16193526	     -2.61113811	     -4.77058174	      0.59728437	      1.01677245	      0.03064366	    -16.00703937	      0.82977531	      0.99400142	    -34.43756218	      6.01463564	      0.00000457	      0.00000000	     18.46379187	     -2.71323848	     -3.98748649	    -19.06428719	     -3.31755201	     -0.00000225	      0.00000000	    -15.55619604	     -2.11604528	      2.71467741
      1.38300000	      5.33514583	     -2.05589844	     -4.63431614	      0.59966904	      1.01854488	      0.02699441	    -13.34343562	     -0.47790500	     -0.77127838	    -40.62489826	      1.82714325	      0.00000468	      0.00000000	     17.43531083	     -1.88401191	     -4.11228047	    -19.89100427	     -2.58694702	     -0.00000226	      0.00000000	    -15.50519823	     -2.82021336	      2.38212997
